<svg width="27" height="27" viewBox="0 0 27 27" fill="none" xmlns="http://www.w3.org/2000/svg">
<path d="M13.9792 13.0208C12.7856 13.0208 11.7639 12.5959 10.9139 11.7459C10.0639 10.8959 9.63893 9.87413 9.63893 8.68056C9.63893 7.48698 10.0639 6.46521 10.9139 5.61524C11.7639 4.76526 12.7856 4.34028 13.9792 4.34028C15.1728 4.34028 16.1946 4.76526 17.0445 5.61524C17.8945 6.46521 18.3195 7.48698 18.3195 8.68056C18.3195 9.87413 17.8945 10.8959 17.0445 11.7459C16.1946 12.5959 15.1728 13.0208 13.9792 13.0208ZM5.29865 21.7014V18.6632C5.29865 18.0483 5.45689 17.4832 5.77337 16.9678C6.08985 16.4524 6.51031 16.059 7.03476 15.7878C8.156 15.2271 9.29533 14.8067 10.4527 14.5264C11.6101 14.2461 12.7856 14.1059 13.9792 14.1059C15.1728 14.1059 16.3483 14.2461 17.5057 14.5264C18.6631 14.8067 19.8024 15.2271 20.9237 15.7878C21.4481 16.059 21.8686 16.4524 22.185 16.9678C22.5015 17.4832 22.6598 18.0483 22.6598 18.6632V21.7014H5.29865ZM7.46879 19.5313H20.4896V18.6632C20.4896 18.4643 20.4399 18.2834 20.3404 18.1207C20.241 17.9579 20.1099 17.8313 19.9471 17.7409C18.9705 17.2526 17.9849 16.8864 16.9903 16.6423C15.9956 16.3981 14.9919 16.276 13.9792 16.276C12.9665 16.276 11.9628 16.3981 10.9681 16.6423C9.97349 16.8864 8.98789 17.2526 8.01133 17.7409C7.84857 17.8313 7.71745 17.9579 7.61799 18.1207C7.51852 18.2834 7.46879 18.4643 7.46879 18.6632V19.5313ZM13.9792 10.8507C14.576 10.8507 15.0869 10.6382 15.5119 10.2132C15.9369 9.78823 16.1493 9.27735 16.1493 8.68056C16.1493 8.08377 15.9369 7.57288 15.5119 7.1479C15.0869 6.72291 14.576 6.51042 13.9792 6.51042C13.3824 6.51042 12.8715 6.72291 12.4465 7.1479C12.0216 7.57288 11.8091 8.08377 11.8091 8.68056C11.8091 9.27735 12.0216 9.78823 12.4465 10.2132C12.8715 10.6382 13.3824 10.8507 13.9792 10.8507Z" fill="black"/>
<rect x="7.46879" y="16.276" width="14.1059" height="4.34028" fill="black"/>
<ellipse cx="14.5217" cy="8.68056" rx="2.71267" ry="3.25521" fill="black"/>
</svg>
